<svg id="Layer_1" data-name="Layer 1" xmlns="http://www.w3.org/2000/svg" viewBox="0 0 595.28 595.28"><defs><style>.cls-1{fill:#fff;}.cls-2,.cls-5{fill:#3eb56c;}.cls-2,.cls-3{fill-rule:evenodd;}.cls-3{fill:#58595b;}.cls-4{fill:#716558;}.cls-5{font-size:28.01px;font-family:GoodTimesRg-Regular, Good Times;}</style></defs><rect class="cls-1" width="595.28" height="595.28" rx="79.5"/><path class="cls-2" d="M386.21,234.13c-16.67-12.39-33.33-24.76-49.83-37-12.35,2.52-22.45,9.14-31.45,19.16,9.58-4.86,19.51-9.15,28.95-8.52l45.85,41a63.45,63.45,0,0,0,6.48-14.68M446.67,279q-24.51-18.15-49.34-36.62a68.17,68.17,0,0,1-10.94,12.39l15.3,13.68c-34.58,6.76-68.27,16.15-95.11,45C350.6,291.77,397.1,283.86,446.67,279Z"/><path class="cls-2" d="M310.43,322.22c34.59-8.8,87.3-12.45,117.89-3.39l-16.41-20c-32.31-2-79.06,14.6-101.48,23.4"/><path class="cls-2" d="M209.07,234.13q25-18.58,49.83-37c12.34,2.52,22.45,9.14,31.44,19.16-9.57-4.86-19.5-9.15-28.95-8.52l-45.85,41a63.41,63.41,0,0,1-6.47-14.68M148.6,279q24.53-18.15,49.34-36.62a68.93,68.93,0,0,0,10.94,12.39l-15.29,13.68c34.57,6.76,68.27,16.15,95.1,45C244.67,291.77,198.17,283.86,148.6,279Z"/><path class="cls-2" d="M284.84,322.22c-34.59-8.8-87.3-12.45-117.89-3.39l16.41-20c32.32-2,79.06,14.6,101.48,23.4"/><path class="cls-3" d="M216.66,153.91c24.94-20.64,65.34-32.56,81-40.37,15.63,7.81,56,19.73,81,40.37,40.52,33.54,22.66,95.34-22.27,110.39,27.58-20.92,35-61.36,13.6-84-19.12-20.25-53.39-33.9-72.3-39.85-18.91,5.95-53.18,19.6-72.31,39.85-21.34,22.59-14,63,13.6,84-44.92-15.05-62.79-76.85-22.27-110.39"/><path class="cls-4" d="M126.66,369.25c7.52,0,11.26,3.74,11.26,11.23v9.7c0,7.45-3.55,11.29-10.69,11.48h-5.58c-6.53,0-10.21-2.92-11-8.72h-1.9c-2.54,0-3.8,1.3-3.8,3.87v11.13c0,2.54-1.24,3.8-3.75,3.8s-3.77-1.26-3.77-3.77v-11c0-7.65,3.74-11.45,11.23-11.45h1.8v-4.95q0-11.28,11.23-11.29Zm3.74,11.13c0-2.41-1.24-3.61-3.74-3.61h-5c-2.48,0-3.71,1.23-3.71,3.71v9.86c0,2.57,1.27,3.84,3.8,3.84H127c2.28-.13,3.42-1.4,3.42-3.84Z"/><path class="cls-4" d="M174.18,394.08c1.24,0,1.84,1.24,1.81,3.71s-.63,3.74-1.9,3.74h-5.61c-.45,6.69-4.16,10.06-11.17,10.06h-2.85c-2.5,0-3.77-1.24-3.77-3.71v-.07c0-2.47,1.27-3.71,3.77-3.71h2.79c2.06,0,3.3-.85,3.68-2.57h-8.72q-11.13,0-11.13-11.22v-9.93c0-7.51,3.74-11.29,11.22-11.29h4.95c7.52,0,11.29,3.78,11.29,11.29v13.7Zm-13.12-13.86q0-3.62-3.81-3.61h-5c-2.44,0-3.65,1.27-3.65,3.77v9.83c0,2.54,1.21,3.81,3.65,3.81l8.85.06Z"/><path class="cls-4" d="M197.71,394.05c1.23,0,1.84,1.24,1.81,3.71s-.67,3.77-1.91,3.77H188c-2.48-.06-3.72-1.3-3.68-3.71-.16,2.44-1.43,3.68-3.84,3.71H170.4c-1.26,0-1.9-1.27-1.9-3.77s.57-3.71,1.81-3.71h10.18V363.13c0-2.5,1.2-3.74,3.65-3.71s3.83,1.27,3.87,3.8l-.07,30.83Z"/><path class="cls-4" d="M238.52,394c1.23,0,1.83,1.23,1.83,3.71s-.66,3.77-1.9,3.77H219.9c-2.19,0-3.42-.95-3.71-2.85a2.75,2.75,0,0,1-3.07,2.85H193.83c-1.23,0-1.87-1.27-1.9-3.77s.6-3.71,1.81-3.71h11.19l-6.37-7.8a4.52,4.52,0,0,1-.95-3.75v-2.18c0-7.49,3.8-11.23,11.45-11.23h14.33q11.33,0,11.32,11.23V383a4.62,4.62,0,0,1-1,3.24l-6.38,7.8Zm-29.66-17.51c-2.53,0-3.8,1.3-3.8,3.87v2l10,12.08a4.83,4.83,0,0,1,1,1.9,5.59,5.59,0,0,1,1.1-1.9l10.09-12.14v-2.13c0-2.44-1.33-3.68-4-3.68Z"/><path class="cls-4" d="M246.53,359.42c2.47,0,3.71,1.27,3.71,3.77v34.57c0,2.5-1.24,3.77-3.71,3.77H234.7c-1.24,0-1.87-1.27-1.9-3.77s.57-3.71,1.81-3.71h8.18V363.1C242.79,360.66,244,359.42,246.53,359.42Z"/><path class="cls-4" d="M259.72,359.42c2.47.06,3.71,1.33,3.71,3.77v34.54c0,2.53-1.24,3.8-3.68,3.8s-3.81-1.27-3.81-3.8V367c-2.53,0-3.77-1.21-3.74-3.62s1.24-3.83,3.74-3.9Z"/><path class="cls-4" d="M312.13,397q0,11.22-11.51,11.22H288.16q-11.32,0-11.32-11.22V384.66c0-2.63,1.24-3.93,3.71-3.93s3.68,1.3,3.71,3.84v12.52c0,2.45,1.33,3.65,4,3.65h12.59c2.54,0,3.81-1.27,3.81-3.84l.06-27.55c0-2.45,1.24-3.65,3.74-3.65s3.71,1.24,3.71,3.74Zm-19.44-30.79a3.69,3.69,0,0,1,1.81-.48,3.63,3.63,0,0,1,1.81.48,3.15,3.15,0,0,1,1.36,1.39,3.44,3.44,0,0,1,.54,1.84,3.73,3.73,0,0,1-.47,1.81,3.66,3.66,0,0,1-1.4,1.39,3.56,3.56,0,0,1-1.84.51,3.69,3.69,0,0,1-1.87-.51,3.31,3.31,0,0,1-1.33-1.39,3.52,3.52,0,0,1,0-3.65A3.27,3.27,0,0,1,292.69,366.21Z"/><path class="cls-4" d="M331.25,394.05c1.23,0,1.83,1.27,1.8,3.77s-.63,3.71-1.9,3.71h-4.53q-11.33,0-11.33-11.22V363.38c0-2.63,1.24-4,3.71-4s3.68,1.33,3.71,3.87V390.4c0,2.44,1.34,3.65,4,3.65Z"/><path class="cls-4" d="M354.74,394.08c1.21,0,1.81,1.24,1.81,3.74s-.67,3.71-1.9,3.71H345q-3.72-.09-3.68-3.71c-.16,2.48-1.43,3.71-3.84,3.71H327.37c-1.23,0-1.84-1.23-1.84-3.71s.58-3.74,1.81-3.74h10.18V372.87c0-2.48,1.21-3.71,3.65-3.71S345,370.42,345,373L345,394.08Zm-16.61,10.28a3.2,3.2,0,0,1,1.39,1.36,3.69,3.69,0,0,1,.51,1.87,3.58,3.58,0,0,1-.51,1.84,3.7,3.7,0,0,1-1.33,1.39,4,4,0,0,1-1.87.48,3.83,3.83,0,0,1-1.84-.48,4.14,4.14,0,0,1-1.4-1.39,3.84,3.84,0,0,1-.47-1.84,4,4,0,0,1,.47-1.87,3.47,3.47,0,0,1,1.43-1.36,3.63,3.63,0,0,1,1.81-.48A3.86,3.86,0,0,1,338.13,404.36Zm10.81,1.36a3.69,3.69,0,0,1,.51,1.87,3.58,3.58,0,0,1-.51,1.84,3.7,3.7,0,0,1-1.33,1.39,4,4,0,0,1-1.87.48,3.83,3.83,0,0,1-1.84-.48,4,4,0,0,1-1.4-1.39,3.84,3.84,0,0,1-.47-1.84,4,4,0,0,1,.47-1.87,3.52,3.52,0,0,1,1.4-1.36,3.69,3.69,0,0,1,3.64,0A3.23,3.23,0,0,1,348.94,405.72Z"/><path class="cls-4" d="M362.73,369.12q3.7,0,3.71,3.71v24.93c0,2.5-1.24,3.77-3.71,3.77H350.84c-1.24,0-1.84-1.23-1.84-3.71s.57-3.77,1.81-3.77H359V372.8C359,370.36,360.22,369.12,362.73,369.12Zm-3.62,42a3.69,3.69,0,0,1-1.36-1.33,3.89,3.89,0,0,1-.48-1.84,3.94,3.94,0,0,1,.48-1.87,3.51,3.51,0,0,1,1.36-1.37,4.08,4.08,0,0,1,1.87-.47,3.91,3.91,0,0,1,1.81.47,3.18,3.18,0,0,1,1.37,1.37,3.79,3.79,0,0,1,.53,1.87,3.74,3.74,0,0,1-.53,1.84,3.32,3.32,0,0,1-1.37,1.33,3.41,3.41,0,0,1-1.81.54A3.56,3.56,0,0,1,359.11,411.08Z"/><path class="cls-4" d="M439.75,369.09c2.47,0,3.71,1.27,3.71,3.78v17.22c0,7.64-3.74,11.44-11.23,11.44H426.3c-2.47-.06-3.71-1.3-3.67-3.71q-.24,3.66-3.81,3.71H410c-.41,6.69-4.22,10.06-11.45,10.06h-9.6q-11.32,0-11.33-11.23V388q0-3.9,3.71-3.9c2.42,0,3.65,1.27,3.71,3.81v12.52c0,2.45,1.31,3.65,3.91,3.65h9.8q3.79,0,3.8-3.8l0-27.53c0-2.44,1.27-3.68,3.78-3.68s3.64,1.27,3.64,3.78V394h8.82l0-21.22c0-2.47,1.2-3.71,3.62-3.71s3.83,1.27,3.86,3.81L426.24,394l6,.06c2.54,0,3.81-1.3,3.81-3.87V372.9C436,370.36,437.24,369.09,439.75,369.09Z"/><path class="cls-4" d="M459.71,372.83l-.06,28.7q-.67,10.1-11.16,10.09l-2.92-.07c-2.47,0-3.71-1.2-3.71-3.64v-.07q0-3.7,3.71-3.71l2.85,0q3.81,0,3.81-3.8V372.9c0-2.51,1.23-3.78,3.71-3.78S459.71,370.36,459.71,372.83Z"/><path class="cls-4" d="M486.66,369.09q11.23,0,11.23,11.51v17.22c0,2.44-1.24,3.65-3.74,3.65l-19.38.06q-11.22,0-11.22-11.48v-.6c0-2.5,1.26-3.77,3.77-3.77s3.74,1.27,3.74,3.8v.73c0,2.57,1.27,3.84,3.81,3.84h15.57V380.41q0-3.8-3.81-3.8l-6.56-.07c-2.51,0-3.78-1.23-3.78-3.71s1.27-3.71,3.78-3.71Z"/><text class="cls-5" transform="translate(93.93 450.11)">DARS BAYANUL ULOOM</text></svg>